<?xml version="1.0" encoding="UTF-8"?>
<svg id="Layer_2" data-name="Layer 2" xmlns="http://www.w3.org/2000/svg" viewBox="0 0 526.86 612.32">
  <defs>
    <style>
      .cls-1, .cls-2 {
        stroke-width: 0px;
      }

      .cls-2 {
        fill: #231f20;
      }
    </style>
  </defs>
  <g id="Layer_1-2" data-name="Layer 1">
    <g>
      <g>
        <path class="cls-1" d="M47.21,209.13c-1.53,120.26,88.46,181.48,206.2,180.6,116.04-.87,210.44-67.87,208.33-183.7-39.76,165.77-379.32,164.84-414.53,3.1Z"/>
        <path class="cls-1" d="M250.5,0C120.79.98,44.06,80.78,44.66,160.82c.6,80.05,78.45,151.53,208.17,150.56,129.73-.98,211.49-73.65,210.89-153.69C463.11,77.64,380.24-.96,250.5,0ZM75.64,113.84c-3.37,0-4.57-2.73-4.57-6.1s4.25-6.1,7.62-6.1,4.57,2.73,4.57,6.1-4.25,6.1-7.62,6.1ZM194.52,43.8c-82.29,22.79-102.11,56.33-109.73,50.23-7.98-6.38,37.08-56.04,103.72-74.75,66.64-18.71,130.86-6.11,133.62,3.73,2.76,9.84-45.23-2.02-127.61,20.79Z"/>
      </g>
      <g>
        <path class="cls-2" d="M0,520.75h13.6l29.85,46.22,29.98-46.22h13.73v89.93h-14.36l.13-62.72-29.35,45.22-29.35-45.22v62.72H0v-89.93Z"/>
        <path class="cls-2" d="M96.48,575.16c0-20.28,16.63-37.28,37.16-37.16,9.32,0,15.87,2.77,21.92,7.31l1.13,1.01v-2.65h14.11v67.01h-14.11v-6.55l-1.39,1.01c-6.17,4.53-13.85,7.18-21.66,7.18-20.91,0-37.16-17-37.16-37.16ZM133.51,598.34c13.73,0,23.18-11.21,23.18-23.18,0-13.6-11.08-23.05-23.05-23.05-12.59,0-23.17,10.33-23.17,23.05,0,13.6,11.21,23.18,23.05,23.18Z"/>
        <path class="cls-2" d="M179.61,574.15c0-20.78,15.87-37.91,37.16-37.91,12.09,0,25.95,6.55,33.25,20.28l-12.85,5.79c-4.91-7.43-11.34-11.97-20.4-11.97-9.57-.38-23.05,7.93-23.05,23.05,0,12.72,10.2,23.18,23.05,23.18,9.07,0,15.37-4.53,20.4-11.97l12.85,5.79c-9.7,17-24.56,20.28-33.88,20.28-19.52,0-36.53-16.5-36.53-36.53Z"/>
        <path class="cls-2" d="M256.69,575.16c0-20.28,16.63-37.28,37.16-37.16,9.32,0,15.87,2.77,21.92,7.31l1.13,1.01v-2.65h14.11v67.01h-14.11v-6.55l-1.38,1.01c-6.17,4.53-13.85,7.18-21.66,7.18-20.91,0-37.16-17-37.16-37.16ZM293.72,598.34c13.73,0,23.17-11.21,23.17-23.18,0-13.6-11.08-23.05-23.05-23.05-12.59,0-23.17,10.33-23.17,23.05,0,13.6,11.21,23.18,23.05,23.18Z"/>
        <path class="cls-2" d="M341.08,536.37h14.11v5.29l1.39-.88c4.41-2.77,9.7-4.41,15.37-4.41,3.27,0,6.8.63,9.95,1.39l-5.54,12.97c-1.13-.25-3.4-.38-4.03-.38-9.7,0-17.13,7.93-17.13,17.51v42.82h-14.11v-74.31Z"/>
        <path class="cls-2" d="M418.17,534.73c20.78,0,37.66,16.88,37.66,37.66s-16.88,38.29-37.66,38.29-37.66-17.51-37.66-38.29,16.88-37.66,37.66-37.66ZM418.17,595.82c13.48,0,23.43-10.83,23.43-23.3s-10.96-23.43-23.3-23.43c-15.49,0-23.8,13.6-23.55,23.3-.5,9.7,7.68,23.43,23.43,23.43Z"/>
        <path class="cls-2" d="M464.64,536.24h14.11v5.42l1.26-.88c4.28-3.02,10.71-4.53,15.74-4.53,17.51,0,31.11,14.11,31.11,31.61v42.82h-13.98v-42.82c0-9.7-7.56-17.51-17-17.51s-17.13,7.68-17.13,17.51v42.82h-14.11v-74.44Z"/>
      </g>
    </g>
  </g>
</svg>