<?xml version="1.0" encoding="UTF-8"?>
<svg id="Layer_2" data-name="Layer 2" xmlns="http://www.w3.org/2000/svg" viewBox="0 0 915 255.67">
  <defs>
    <style>
      .cls-1, .cls-2 {
        stroke-width: 0px;
      }

      .cls-2 {
        fill: #231f20;
      }
    </style>
  </defs>
  <g id="Layer_1-2" data-name="Layer 1">
    <g>
      <g>
        <path class="cls-1" d="M1.68,137.19c-1,78.89,58.03,119.05,135.27,118.48,76.12-.57,138.05-44.52,136.67-120.51-26.08,108.74-248.84,108.13-271.93,2.03Z"/>
        <path class="cls-1" d="M135.03,0C49.94.64-.39,52.99,0,105.5c.39,52.51,51.46,99.4,136.56,98.77,85.1-.64,138.73-48.31,138.34-100.82C274.5,50.93,220.14-.63,135.03,0ZM20.33,74.68c-2.21,0-3-1.79-3-4s2.79-4,5-4,3,1.79,3,4-2.79,4-5,4ZM98.31,28.73C44.33,43.68,31.33,65.68,26.33,61.68c-5.24-4.19,24.32-36.76,68.04-49.04,43.72-12.27,85.84-4.01,87.66,2.45,1.81,6.45-29.67-1.33-83.71,13.64Z"/>
      </g>
      <g>
        <path class="cls-2" d="M358.03,80.25h14.38l31.56,48.87,31.69-48.87h14.51v95.07h-15.18l.13-66.31-31.02,47.8-31.02-47.8v66.31h-15.05v-95.07Z"/>
        <path class="cls-2" d="M460.03,137.77c0-21.44,17.58-39.41,39.28-39.28,9.85,0,16.78,2.93,23.17,7.72l1.2,1.07v-2.8h14.91v70.83h-14.91v-6.92l-1.46,1.07c-6.53,4.79-14.65,7.59-22.9,7.59-22.1,0-39.28-17.97-39.28-39.28ZM499.17,162.27c14.51,0,24.5-11.85,24.5-24.5,0-14.38-11.72-24.37-24.37-24.37-13.31,0-24.5,10.92-24.5,24.37,0,14.38,11.85,24.5,24.37,24.5Z"/>
        <path class="cls-2" d="M547.91,136.7c0-21.97,16.78-40.08,39.28-40.08,12.78,0,27.43,6.92,35.15,21.44l-13.58,6.12c-5.19-7.86-11.98-12.65-21.57-12.65-10.12-.4-24.37,8.39-24.37,24.37,0,13.45,10.79,24.5,24.37,24.5,9.59,0,16.24-4.79,21.57-12.65l13.58,6.12c-10.25,17.98-25.96,21.44-35.82,21.44-20.64,0-38.61-17.44-38.61-38.61Z"/>
        <path class="cls-2" d="M629.39,137.77c0-21.44,17.58-39.41,39.28-39.28,9.85,0,16.78,2.93,23.17,7.72l1.2,1.07v-2.8h14.91v70.83h-14.91v-6.92l-1.46,1.07c-6.52,4.79-14.65,7.59-22.9,7.59-22.1,0-39.28-17.97-39.28-39.28ZM668.54,162.27c14.51,0,24.5-11.85,24.5-24.5,0-14.38-11.72-24.37-24.37-24.37-13.31,0-24.5,10.92-24.5,24.37,0,14.38,11.85,24.5,24.37,24.5Z"/>
        <path class="cls-2" d="M718.61,96.76h14.91v5.59l1.46-.93c4.66-2.93,10.25-4.66,16.24-4.66,3.46,0,7.19.67,10.52,1.46l-5.86,13.71c-1.2-.27-3.59-.4-4.26-.4-10.25,0-18.11,8.39-18.11,18.51v45.27h-14.91v-78.56Z"/>
        <path class="cls-2" d="M800.09,95.03c21.97,0,39.81,17.84,39.81,39.81s-17.84,40.48-39.81,40.48-39.81-18.51-39.81-40.48,17.84-39.81,39.81-39.81ZM800.09,159.6c14.25,0,24.77-11.45,24.77-24.63s-11.58-24.77-24.63-24.77c-16.38,0-25.17,14.38-24.9,24.63-.53,10.25,8.12,24.77,24.77,24.77Z"/>
        <path class="cls-2" d="M849.23,96.62h14.91v5.73l1.33-.93c4.53-3.2,11.32-4.79,16.64-4.79,18.51,0,32.89,14.91,32.89,33.42v45.27h-14.78v-45.27c0-10.25-7.99-18.51-17.97-18.51s-18.11,8.12-18.11,18.51v45.27h-14.91v-78.69Z"/>
      </g>
    </g>
  </g>
</svg>